<svg width="45" height="12" viewBox="0 0 45 12" fill="none" xmlns="http://www.w3.org/2000/svg">
<path d="M5.8125 5.05664H2.11523V8.08008H6.41016V9H0.990234V0.46875H6.35156V1.39453H2.11523V4.13672H5.8125V5.05664ZM8.86602 2.66016L8.90117 3.45703C9.38555 2.84766 10.0184 2.54297 10.7996 2.54297C12.1395 2.54297 12.8152 3.29883 12.827 4.81055V9H11.743V4.80469C11.7391 4.34766 11.6336 4.00977 11.4266 3.79102C11.2234 3.57227 10.9051 3.46289 10.4715 3.46289C10.1199 3.46289 9.81133 3.55664 9.5457 3.74414C9.28008 3.93164 9.07305 4.17773 8.92461 4.48242V9H7.84062V2.66016H8.86602ZM16.1324 1.125V2.66016H17.316V3.49805H16.1324V7.42969C16.1324 7.68359 16.1852 7.875 16.2906 8.00391C16.3961 8.12891 16.5758 8.19141 16.8297 8.19141C16.9547 8.19141 17.1266 8.16797 17.3453 8.12109V9C17.0602 9.07812 16.7828 9.11719 16.5133 9.11719C16.0289 9.11719 15.6637 8.9707 15.4176 8.67773C15.1715 8.38477 15.0484 7.96875 15.0484 7.42969V3.49805H13.8941V2.66016H15.0484V1.125H16.1324ZM21.852 3.63281C21.6879 3.60547 21.5102 3.5918 21.3188 3.5918C20.6078 3.5918 20.1254 3.89453 19.8715 4.5V9H18.7875V2.66016H19.8422L19.8598 3.39258C20.2152 2.82617 20.7191 2.54297 21.3715 2.54297C21.5824 2.54297 21.7426 2.57031 21.852 2.625V3.63281ZM25.5676 9.11719C24.7082 9.11719 24.009 8.83594 23.4699 8.27344C22.9309 7.70703 22.6613 6.95117 22.6613 6.00586V5.80664C22.6613 5.17773 22.7805 4.61719 23.0187 4.125C23.2609 3.62891 23.5969 3.24219 24.0266 2.96484C24.4602 2.68359 24.9289 2.54297 25.4328 2.54297C26.257 2.54297 26.8977 2.81445 27.3547 3.35742C27.8117 3.90039 28.0402 4.67773 28.0402 5.68945V6.14062H23.7453C23.7609 6.76562 23.9426 7.27148 24.2902 7.6582C24.6418 8.04102 25.0871 8.23242 25.6262 8.23242C26.009 8.23242 26.3332 8.1543 26.5988 7.99805C26.8645 7.8418 27.0969 7.63477 27.2961 7.37695L27.9582 7.89258C27.427 8.70898 26.6301 9.11719 25.5676 9.11719ZM25.4328 3.43359C24.9953 3.43359 24.6281 3.59375 24.3312 3.91406C24.0344 4.23047 23.8508 4.67578 23.7805 5.25H26.9562V5.16797C26.925 4.61719 26.7766 4.19141 26.5109 3.89062C26.2453 3.58594 25.8859 3.43359 25.4328 3.43359ZM29.2422 5.77734C29.2422 4.78906 29.4707 4.00391 29.9277 3.42188C30.3848 2.83594 30.9902 2.54297 31.7441 2.54297C32.5176 2.54297 33.1211 2.81641 33.5547 3.36328L33.6074 2.66016H34.5977V8.84766C34.5977 9.66797 34.3535 10.3145 33.8652 10.7871C33.3809 11.2598 32.7285 11.4961 31.9082 11.4961C31.4512 11.4961 31.0039 11.3984 30.5664 11.2031C30.1289 11.0078 29.7949 10.7402 29.5645 10.4004L30.127 9.75C30.5918 10.3242 31.1602 10.6113 31.832 10.6113C32.3594 10.6113 32.7695 10.4629 33.0625 10.166C33.3594 9.86914 33.5078 9.45117 33.5078 8.91211V8.36719C33.0742 8.86719 32.4824 9.11719 31.7324 9.11719C30.9902 9.11719 30.3887 8.81836 29.9277 8.2207C29.4707 7.62305 29.2422 6.80859 29.2422 5.77734ZM30.332 5.90039C30.332 6.61523 30.4785 7.17773 30.7715 7.58789C31.0645 7.99414 31.4746 8.19727 32.002 8.19727C32.6855 8.19727 33.1875 7.88672 33.5078 7.26562V4.37109C33.1758 3.76562 32.6777 3.46289 32.0137 3.46289C31.4863 3.46289 31.0742 3.66797 30.7773 4.07812C30.4805 4.48828 30.332 5.0957 30.332 5.90039ZM40.3523 9C40.2898 8.875 40.2391 8.65234 40.2 8.33203C39.6961 8.85547 39.0945 9.11719 38.3953 9.11719C37.7703 9.11719 37.2566 8.94141 36.8543 8.58984C36.4559 8.23438 36.2566 7.78516 36.2566 7.24219C36.2566 6.58203 36.5066 6.07031 37.0066 5.70703C37.5105 5.33984 38.2176 5.15625 39.1277 5.15625H40.1824V4.6582C40.1824 4.2793 40.0691 3.97852 39.8426 3.75586C39.616 3.5293 39.282 3.41602 38.8406 3.41602C38.4539 3.41602 38.1297 3.51367 37.868 3.70898C37.6063 3.9043 37.4754 4.14062 37.4754 4.41797H36.3855C36.3855 4.10156 36.4969 3.79688 36.7195 3.50391C36.9461 3.20703 37.2508 2.97266 37.6336 2.80078C38.0203 2.62891 38.4441 2.54297 38.9051 2.54297C39.6355 2.54297 40.2078 2.72656 40.6219 3.09375C41.0359 3.45703 41.2508 3.95898 41.2664 4.59961V7.51758C41.2664 8.09961 41.3406 8.5625 41.4891 8.90625V9H40.3523ZM38.5535 8.17383C38.8934 8.17383 39.2156 8.08594 39.5203 7.91016C39.825 7.73438 40.0457 7.50586 40.1824 7.22461V5.92383H39.3328C38.0047 5.92383 37.3406 6.3125 37.3406 7.08984C37.3406 7.42969 37.4539 7.69531 37.6805 7.88672C37.907 8.07812 38.198 8.17383 38.5535 8.17383ZM43.1305 8.43164C43.1305 8.24414 43.1852 8.08789 43.2945 7.96289C43.4078 7.83789 43.5758 7.77539 43.7984 7.77539C44.0211 7.77539 44.1891 7.83789 44.3023 7.96289C44.4195 8.08789 44.4781 8.24414 44.4781 8.43164C44.4781 8.61133 44.4195 8.76172 44.3023 8.88281C44.1891 9.00391 44.0211 9.06445 43.7984 9.06445C43.5758 9.06445 43.4078 9.00391 43.2945 8.88281C43.1852 8.76172 43.1305 8.61133 43.1305 8.43164ZM43.1363 3.25781C43.1363 3.07031 43.191 2.91406 43.3004 2.78906C43.4137 2.66406 43.5816 2.60156 43.8043 2.60156C44.027 2.60156 44.1949 2.66406 44.3082 2.78906C44.4254 2.91406 44.484 3.07031 44.484 3.25781C44.484 3.4375 44.4254 3.58789 44.3082 3.70898C44.1949 3.83008 44.027 3.89062 43.8043 3.89062C43.5816 3.89062 43.4137 3.83008 43.3004 3.70898C43.191 3.58789 43.1363 3.4375 43.1363 3.25781Z" fill="#D80000"/>
</svg>
